<svg xmlns="http://www.w3.org/2000/svg" xmlns:xlink="http://www.w3.org/1999/xlink" xmlns:lucid="lucid" width="1240" height="720"><g transform="translate(-60 -20)" lucid:page-tab-id="BfjiWoTJweL-"><path d="M0 0h1360v1760H0z" fill="#fff"/><path d="M252.2 88.3c0-4.4 3.57-8 8-8h837.7c4.4 0 8 3.6 8 8v2.86c0 4.4-3.6 8-8 8H260.2c-4.43 0-8-3.6-8-8z" stroke="#000" stroke-opacity="0" stroke-width="2" fill="#fff" fill-opacity="0"/><path d="M80 160h160v560H80z" stroke="#333" stroke-width="2" fill-opacity="0"/><use xlink:href="#a" transform="matrix(1,0,0,1,85,165) translate(27.34640522875817 282.562091503268)"/><path d="M1120 160h160v560h-160z" stroke="#333" stroke-width="2" fill-opacity="0"/><use xlink:href="#b" transform="matrix(1,0,0,1,1125,165) translate(19.973856209150323 282.562091503268)"/><path d="M252.2 200H1074v-20l36 40-36 40v-20H252.2z" stroke="#333" stroke-width="2" fill-opacity="0"/><use xlink:href="#c" transform="matrix(1,0,0,1,257.1891668241449,185) translate(342.4888888888889 41.95555555555555)"/><use xlink:href="#d" transform="matrix(1,0,0,1,257.1891668241449,185) translate(432.88888888888886 41.95555555555555)"/><path d="M1100 340H288.2v20l-36-40 36-40v20H1100z" stroke="#333" stroke-width="2" fill-opacity="0"/><use xlink:href="#e" transform="matrix(1,4.440892098500626e-16,-4.440892098500626e-16,1,257.1891668241452,284.99999999999966) translate(331.77777777777777 41.95555555555555)"/><use xlink:href="#d" transform="matrix(1,4.440892098500626e-16,-4.440892098500626e-16,1,257.1891668241452,284.99999999999966) translate(434.7111111111111 41.95555555555555)"/><path d="M250.14 410h821.8v-20l36 40-36 40v-20h-821.8z" stroke="#333" stroke-width="2" fill-opacity="0"/><use xlink:href="#f" transform="matrix(1,0,0,1,255.13719745087394,395) translate(58.17777777777776 41.95555555555555)"/><use xlink:href="#g" transform="matrix(1,0,0,1,255.13719745087394,395) translate(244.75555555555556 41.95555555555555)"/><use xlink:href="#h" transform="matrix(1,0,0,1,255.13719745087394,395) translate(390.26666666666665 41.95555555555555)"/><use xlink:href="#i" transform="matrix(1,0,0,1,255.13719745087394,395) translate(452.4888888888889 41.95555555555555)"/><use xlink:href="#j" transform="matrix(1,0,0,1,255.13719745087394,395) translate(550.1777777777778 41.95555555555555)"/><use xlink:href="#k" transform="matrix(1,0,0,1,255.13719745087394,395) translate(702.8000000000001 41.95555555555555)"/><path d="M250.14 540l40-40v20h777.8v-20l40 40-40 40v-20h-777.8v20z" stroke="#333" stroke-width="2" fill-opacity="0"/><use xlink:href="#l" transform="matrix(1,0,0,1,255.13719745087428,505) translate(276.5777777777777 41.95555555555555)"/><use xlink:href="#m" transform="matrix(1,0,0,1,255.13719745087428,505) translate(333.46666666666664 41.95555555555555)"/><use xlink:href="#n" transform="matrix(1,0,0,1,255.13719745087428,505) translate(377.9111111111111 41.95555555555555)"/><use xlink:href="#k" transform="matrix(1,0,0,1,255.13719745087428,505) translate(484.40000000000003 41.95555555555555)"/><path d="M250.14 660l40-40v20h777.8v-20l40 40-40 40v-20h-777.8v20z" stroke="#333" stroke-width="2" fill-opacity="0"/><g><use xlink:href="#o" transform="matrix(1,0,0,1,255.13719745087428,625) translate(295.2444444444444 41.95555555555555)"/><use xlink:href="#p" transform="matrix(1,0,0,1,255.13719745087428,625) translate(455.0666666666666 41.95555555555555)"/></g><path d="M260 48c0-4.42 3.58-8 8-8h836.75c4.42 0 8 3.58 8 8v25.16c0 4.4-3.58 8-8 8H268c-4.42 0-8-3.6-8-8z" stroke="#000" stroke-opacity="0" stroke-width="2" fill="#fff" fill-opacity="0"/><g><use xlink:href="#q" transform="matrix(1,0,0,1,264,44) translate(325.47358024691357 23.657777777777778)"/><use xlink:href="#r" transform="matrix(1,0,0,1,264,44) translate(386.58592592592595 23.657777777777778)"/></g><path d="M460.3 78.97h446.3M460.33 78.97h-1.03M906.56 78.97h1.03" stroke="#b2b2b2" stroke-width="2" fill="none"/><path d="M252.2 88.3c0-4.4 3.57-8 8-8h837.7c4.4 0 8 3.6 8 8v2.86c0 4.4-3.6 8-8 8H260.2c-4.43 0-8-3.6-8-8z" stroke="#000" stroke-opacity="0" stroke-width="2" fill="#fff" fill-opacity="0"/><defs><path fill="#333" d="M212-179c-10-28-35-45-73-45-59 0-87 40-87 99 0 60 29 101 89 101 43 0 62-24 78-52l27 14C228-24 195 4 139 4 59 4 22-46 18-125c-6-104 99-153 187-111 19 9 31 26 39 46" id="s"/><path fill="#333" d="M24 0v-261h32V0H24" id="t"/><path fill="#333" d="M24-231v-30h32v30H24zM24 0v-190h32V0H24" id="u"/><path fill="#333" d="M100-194c63 0 86 42 84 106H49c0 40 14 67 53 68 26 1 43-12 49-29l28 8c-11 28-37 45-77 45C44 4 14-33 15-96c1-61 26-98 85-98zm52 81c6-60-76-77-97-28-3 7-6 17-6 28h103" id="v"/><path fill="#333" d="M117-194c89-4 53 116 60 194h-32v-121c0-31-8-49-39-48C34-167 62-67 57 0H25l-1-190h30c1 10-1 24 2 32 11-22 29-35 61-36" id="w"/><path fill="#333" d="M59-47c-2 24 18 29 38 22v24C64 9 27 4 27-40v-127H5v-23h24l9-43h21v43h35v23H59v120" id="x"/><g id="a"><use transform="matrix(0.10457516339869281,0,0,0.10457516339869281,0,0)" xlink:href="#s"/><use transform="matrix(0.10457516339869281,0,0,0.10457516339869281,27.084967320261438,0)" xlink:href="#t"/><use transform="matrix(0.10457516339869281,0,0,0.10457516339869281,35.34640522875818,0)" xlink:href="#u"/><use transform="matrix(0.10457516339869281,0,0,0.10457516339869281,43.60784313725491,0)" xlink:href="#v"/><use transform="matrix(0.10457516339869281,0,0,0.10457516339869281,64.52287581699348,0)" xlink:href="#w"/><use transform="matrix(0.10457516339869281,0,0,0.10457516339869281,85.43790849673204,0)" xlink:href="#x"/></g><path fill="#333" d="M185-189c-5-48-123-54-124 2 14 75 158 14 163 119 3 78-121 87-175 55-17-10-28-26-33-46l33-7c5 56 141 63 141-1 0-78-155-14-162-118-5-82 145-84 179-34 5 7 8 16 11 25" id="y"/><path fill="#333" d="M114-163C36-179 61-72 57 0H25l-1-190h30c1 12-1 29 2 39 6-27 23-49 58-41v29" id="z"/><path fill="#333" d="M108 0H70L1-190h34L89-25l56-165h34" id="A"/><g id="b"><use transform="matrix(0.10457516339869281,0,0,0.10457516339869281,0,0)" xlink:href="#y"/><use transform="matrix(0.10457516339869281,0,0,0.10457516339869281,25.098039215686278,0)" xlink:href="#v"/><use transform="matrix(0.10457516339869281,0,0,0.10457516339869281,46.01307189542484,0)" xlink:href="#z"/><use transform="matrix(0.10457516339869281,0,0,0.10457516339869281,58.45751633986928,0)" xlink:href="#A"/><use transform="matrix(0.10457516339869281,0,0,0.10457516339869281,77.281045751634,0)" xlink:href="#v"/><use transform="matrix(0.10457516339869281,0,0,0.10457516339869281,98.19607843137256,0)" xlink:href="#z"/></g><g id="c"><use transform="matrix(0.08888888888888889,0,0,0.08888888888888889,0,0)" xlink:href="#s"/><use transform="matrix(0.08888888888888889,0,0,0.08888888888888889,23.022222222222222,0)" xlink:href="#t"/><use transform="matrix(0.08888888888888889,0,0,0.08888888888888889,30.044444444444444,0)" xlink:href="#u"/><use transform="matrix(0.08888888888888889,0,0,0.08888888888888889,37.06666666666667,0)" xlink:href="#v"/><use transform="matrix(0.08888888888888889,0,0,0.08888888888888889,54.844444444444434,0)" xlink:href="#w"/><use transform="matrix(0.08888888888888889,0,0,0.08888888888888889,72.62222222222222,0)" xlink:href="#x"/></g><path fill="#333" d="M197 0v-115H63V0H30v-248h33v105h134v-105h34V0h-34" id="B"/><path fill="#333" d="M100-194c62-1 85 37 85 99 1 63-27 99-86 99S16-35 15-95c0-66 28-99 85-99zM99-20c44 1 53-31 53-75 0-43-8-75-51-75s-53 32-53 75 10 74 51 75" id="C"/><g id="d"><use transform="matrix(0.08888888888888889,0,0,0.08888888888888889,0,0)" xlink:href="#B"/><use transform="matrix(0.08888888888888889,0,0,0.08888888888888889,23.022222222222222,0)" xlink:href="#v"/><use transform="matrix(0.08888888888888889,0,0,0.08888888888888889,40.800000000000004,0)" xlink:href="#t"/><use transform="matrix(0.08888888888888889,0,0,0.08888888888888889,47.82222222222222,0)" xlink:href="#t"/><use transform="matrix(0.08888888888888889,0,0,0.08888888888888889,54.844444444444434,0)" xlink:href="#C"/></g><g id="e"><use transform="matrix(0.08888888888888889,0,0,0.08888888888888889,0,0)" xlink:href="#y"/><use transform="matrix(0.08888888888888889,0,0,0.08888888888888889,21.333333333333332,0)" xlink:href="#v"/><use transform="matrix(0.08888888888888889,0,0,0.08888888888888889,39.11111111111111,0)" xlink:href="#z"/><use transform="matrix(0.08888888888888889,0,0,0.08888888888888889,49.68888888888888,0)" xlink:href="#A"/><use transform="matrix(0.08888888888888889,0,0,0.08888888888888889,65.6888888888889,0)" xlink:href="#v"/><use transform="matrix(0.08888888888888889,0,0,0.08888888888888889,83.46666666666667,0)" xlink:href="#z"/></g><path fill="#333" d="M205 0l-28-72H64L36 0H1l101-248h38L239 0h-34zm-38-99l-47-123c-12 45-31 82-46 123h93" id="D"/><path fill="#333" d="M84 4C-5 8 30-112 23-190h32v120c0 31 7 50 39 49 72-2 45-101 50-169h31l1 190h-30c-1-10 1-25-2-33-11 22-28 36-60 37" id="E"/><path fill="#333" d="M106-169C34-169 62-67 57 0H25v-261h32l-1 103c12-21 28-36 61-36 89 0 53 116 60 194h-32v-121c2-32-8-49-39-48" id="F"/><path fill="#333" d="M96-169c-40 0-48 33-48 73s9 75 48 75c24 0 41-14 43-38l32 2c-6 37-31 61-74 61-59 0-76-41-82-99-10-93 101-131 147-64 4 7 5 14 7 22l-32 3c-4-21-16-35-41-35" id="G"/><path fill="#333" d="M141-36C126-15 110 5 73 4 37 3 15-17 15-53c-1-64 63-63 125-63 3-35-9-54-41-54-24 1-41 7-42 31l-33-3c5-37 33-52 76-52 45 0 72 20 72 64v82c-1 20 7 32 28 27v20c-31 9-61-2-59-35zM48-53c0 20 12 33 32 33 41-3 63-29 60-74-43 2-92-5-92 41" id="H"/><g id="f"><use transform="matrix(0.08888888888888889,0,0,0.08888888888888889,0,0)" xlink:href="#D"/><use transform="matrix(0.08888888888888889,0,0,0.08888888888888889,21.333333333333332,0)" xlink:href="#E"/><use transform="matrix(0.08888888888888889,0,0,0.08888888888888889,39.11111111111111,0)" xlink:href="#x"/><use transform="matrix(0.08888888888888889,0,0,0.08888888888888889,48,0)" xlink:href="#F"/><use transform="matrix(0.08888888888888889,0,0,0.08888888888888889,65.77777777777777,0)" xlink:href="#v"/><use transform="matrix(0.08888888888888889,0,0,0.08888888888888889,83.55555555555556,0)" xlink:href="#w"/><use transform="matrix(0.08888888888888889,0,0,0.08888888888888889,101.33333333333334,0)" xlink:href="#x"/><use transform="matrix(0.08888888888888889,0,0,0.08888888888888889,110.2222222222222,0)" xlink:href="#u"/><use transform="matrix(0.08888888888888889,0,0,0.08888888888888889,117.24444444444445,0)" xlink:href="#G"/><use transform="matrix(0.08888888888888889,0,0,0.08888888888888889,133.24444444444444,0)" xlink:href="#H"/><use transform="matrix(0.08888888888888889,0,0,0.08888888888888889,151.0222222222222,0)" xlink:href="#x"/><use transform="matrix(0.08888888888888889,0,0,0.08888888888888889,159.9111111111111,0)" xlink:href="#v"/></g><path fill="#333" d="M101-234c-31-9-42 10-38 44h38v23H63V0H32v-167H5v-23h27c-7-52 17-82 69-68v24" id="I"/><g id="g"><use transform="matrix(0.08888888888888889,0,0,0.08888888888888889,0,0)" xlink:href="#G"/><use transform="matrix(0.08888888888888889,0,0,0.08888888888888889,16,0)" xlink:href="#v"/><use transform="matrix(0.08888888888888889,0,0,0.08888888888888889,33.77777777777778,0)" xlink:href="#z"/><use transform="matrix(0.08888888888888889,0,0,0.08888888888888889,44.355555555555554,0)" xlink:href="#x"/><use transform="matrix(0.08888888888888889,0,0,0.08888888888888889,53.24444444444443,0)" xlink:href="#u"/><use transform="matrix(0.08888888888888889,0,0,0.08888888888888889,60.26666666666666,0)" xlink:href="#I"/><use transform="matrix(0.08888888888888889,0,0,0.08888888888888889,69.15555555555555,0)" xlink:href="#u"/><use transform="matrix(0.08888888888888889,0,0,0.08888888888888889,76.17777777777778,0)" xlink:href="#G"/><use transform="matrix(0.08888888888888889,0,0,0.08888888888888889,92.17777777777778,0)" xlink:href="#H"/><use transform="matrix(0.08888888888888889,0,0,0.08888888888888889,109.95555555555553,0)" xlink:href="#x"/><use transform="matrix(0.08888888888888889,0,0,0.08888888888888889,118.84444444444443,0)" xlink:href="#v"/></g><path fill="#333" d="M85-194c31 0 48 13 60 33l-1-100h32l1 261h-30c-2-10 0-23-3-31C134-8 116 4 85 4 32 4 16-35 15-94c0-66 23-100 70-100zm9 24c-40 0-46 34-46 75 0 40 6 74 45 74 42 0 51-32 51-76 0-42-9-74-50-73" id="J"/><g id="h"><use transform="matrix(0.08888888888888889,0,0,0.08888888888888889,0,0)" xlink:href="#H"/><use transform="matrix(0.08888888888888889,0,0,0.08888888888888889,17.77777777777778,0)" xlink:href="#w"/><use transform="matrix(0.08888888888888889,0,0,0.08888888888888889,35.55555555555556,0)" xlink:href="#J"/></g><g id="i"><use transform="matrix(0.08888888888888889,0,0,0.08888888888888889,0,0)" xlink:href="#G"/><use transform="matrix(0.08888888888888889,0,0,0.08888888888888889,16,0)" xlink:href="#z"/><use transform="matrix(0.08888888888888889,0,0,0.08888888888888889,26.577777777777772,0)" xlink:href="#v"/><use transform="matrix(0.08888888888888889,0,0,0.08888888888888889,44.355555555555554,0)" xlink:href="#H"/><use transform="matrix(0.08888888888888889,0,0,0.08888888888888889,62.13333333333333,0)" xlink:href="#x"/><use transform="matrix(0.08888888888888889,0,0,0.08888888888888889,71.02222222222223,0)" xlink:href="#v"/></g><path fill="#333" d="M115-194c55 1 70 41 70 98S169 2 115 4C84 4 66-9 55-30l1 105H24l-1-265h31l2 30c10-21 28-34 59-34zm-8 174c40 0 45-34 45-75s-6-73-45-74c-42 0-51 32-51 76 0 43 10 73 51 73" id="K"/><path fill="#333" d="M210-169c-67 3-38 105-44 169h-31v-121c0-29-5-50-35-48C34-165 62-65 56 0H25l-1-190h30c1 10-1 24 2 32 10-44 99-50 107 0 11-21 27-35 58-36 85-2 47 119 55 194h-31v-121c0-29-5-49-35-48" id="L"/><path fill="#333" d="M135-143c-3-34-86-38-87 0 15 53 115 12 119 90S17 21 10-45l28-5c4 36 97 45 98 0-10-56-113-15-118-90-4-57 82-63 122-42 12 7 21 19 24 35" id="M"/><g id="j"><use transform="matrix(0.08888888888888889,0,0,0.08888888888888889,0,0)" xlink:href="#K"/><use transform="matrix(0.08888888888888889,0,0,0.08888888888888889,17.77777777777778,0)" xlink:href="#z"/><use transform="matrix(0.08888888888888889,0,0,0.08888888888888889,28.355555555555558,0)" xlink:href="#v"/><use transform="matrix(0.08888888888888889,0,0,0.08888888888888889,46.13333333333333,0)" xlink:href="#L"/><use transform="matrix(0.08888888888888889,0,0,0.08888888888888889,72.71111111111111,0)" xlink:href="#H"/><use transform="matrix(0.08888888888888889,0,0,0.08888888888888889,90.48888888888888,0)" xlink:href="#M"/><use transform="matrix(0.08888888888888889,0,0,0.08888888888888889,106.48888888888887,0)" xlink:href="#x"/><use transform="matrix(0.08888888888888889,0,0,0.08888888888888889,115.37777777777778,0)" xlink:href="#v"/><use transform="matrix(0.08888888888888889,0,0,0.08888888888888889,133.15555555555557,0)" xlink:href="#z"/></g><g id="k"><use transform="matrix(0.08888888888888889,0,0,0.08888888888888889,0,0)" xlink:href="#M"/><use transform="matrix(0.08888888888888889,0,0,0.08888888888888889,16,0)" xlink:href="#v"/><use transform="matrix(0.08888888888888889,0,0,0.08888888888888889,33.77777777777778,0)" xlink:href="#G"/><use transform="matrix(0.08888888888888889,0,0,0.08888888888888889,49.77777777777777,0)" xlink:href="#z"/><use transform="matrix(0.08888888888888889,0,0,0.08888888888888889,60.35555555555556,0)" xlink:href="#v"/><use transform="matrix(0.08888888888888889,0,0,0.08888888888888889,78.13333333333334,0)" xlink:href="#x"/></g><g id="l"><use transform="matrix(0.08888888888888889,0,0,0.08888888888888889,0,0)" xlink:href="#y"/><use transform="matrix(0.08888888888888889,0,0,0.08888888888888889,21.333333333333332,0)" xlink:href="#v"/><use transform="matrix(0.08888888888888889,0,0,0.08888888888888889,39.11111111111111,0)" xlink:href="#x"/></g><g id="m"><use transform="matrix(0.08888888888888889,0,0,0.08888888888888889,0,0)" xlink:href="#E"/><use transform="matrix(0.08888888888888889,0,0,0.08888888888888889,17.77777777777778,0)" xlink:href="#K"/></g><g id="n"><use transform="matrix(0.08888888888888889,0,0,0.08888888888888889,0,0)" xlink:href="#L"/><use transform="matrix(0.08888888888888889,0,0,0.08888888888888889,26.57777777777778,0)" xlink:href="#H"/><use transform="matrix(0.08888888888888889,0,0,0.08888888888888889,44.35555555555556,0)" xlink:href="#M"/><use transform="matrix(0.08888888888888889,0,0,0.08888888888888889,60.35555555555556,0)" xlink:href="#x"/><use transform="matrix(0.08888888888888889,0,0,0.08888888888888889,69.24444444444444,0)" xlink:href="#v"/><use transform="matrix(0.08888888888888889,0,0,0.08888888888888889,87.02222222222223,0)" xlink:href="#z"/></g><path fill="#333" d="M30 0v-248h187v28H63v79h144v27H63v87h162V0H30" id="N"/><path fill="#333" d="M179-190L93 31C79 59 56 82 12 73V49c39 6 53-20 64-50L1-190h34L92-34l54-156h33" id="O"/><g id="o"><use transform="matrix(0.08888888888888889,0,0,0.08888888888888889,0,0)" xlink:href="#N"/><use transform="matrix(0.08888888888888889,0,0,0.08888888888888889,21.333333333333332,0)" xlink:href="#w"/><use transform="matrix(0.08888888888888889,0,0,0.08888888888888889,39.11111111111111,0)" xlink:href="#G"/><use transform="matrix(0.08888888888888889,0,0,0.08888888888888889,55.1111111111111,0)" xlink:href="#z"/><use transform="matrix(0.08888888888888889,0,0,0.08888888888888889,65.6888888888889,0)" xlink:href="#O"/><use transform="matrix(0.08888888888888889,0,0,0.08888888888888889,81.68888888888888,0)" xlink:href="#K"/><use transform="matrix(0.08888888888888889,0,0,0.08888888888888889,99.46666666666667,0)" xlink:href="#x"/><use transform="matrix(0.08888888888888889,0,0,0.08888888888888889,108.35555555555555,0)" xlink:href="#u"/><use transform="matrix(0.08888888888888889,0,0,0.08888888888888889,115.37777777777778,0)" xlink:href="#C"/><use transform="matrix(0.08888888888888889,0,0,0.08888888888888889,133.15555555555557,0)" xlink:href="#w"/></g><g id="p"><use transform="matrix(0.08888888888888889,0,0,0.08888888888888889,0,0)" xlink:href="#M"/><use transform="matrix(0.08888888888888889,0,0,0.08888888888888889,16,0)" xlink:href="#x"/><use transform="matrix(0.08888888888888889,0,0,0.08888888888888889,24.888888888888886,0)" xlink:href="#H"/><use transform="matrix(0.08888888888888889,0,0,0.08888888888888889,42.666666666666664,0)" xlink:href="#z"/><use transform="matrix(0.08888888888888889,0,0,0.08888888888888889,53.24444444444443,0)" xlink:href="#x"/><use transform="matrix(0.08888888888888889,0,0,0.08888888888888889,62.13333333333333,0)" xlink:href="#v"/><use transform="matrix(0.08888888888888889,0,0,0.08888888888888889,79.91111111111111,0)" xlink:href="#J"/></g><path fill="#b2b2b2" d="M169-182c-1-43-94-46-97-3 18 66 151 10 154 114 3 95-165 93-204 36-6-8-10-19-12-30l50-8c3 46 112 56 116 5-17-69-150-10-154-114-4-87 153-88 188-35 5 8 8 18 10 28" id="P"/><path fill="#b2b2b2" d="M186 0v-106H76V0H24v-248h52v99h110v-99h50V0h-50" id="Q"/><g id="q"><use transform="matrix(0.0728395061728395,0,0,0.0728395061728395,0,0)" xlink:href="#P"/><use transform="matrix(0.0728395061728395,0,0,0.0728395061728395,17.48148148148148,0)" xlink:href="#P"/><use transform="matrix(0.0728395061728395,0,0,0.0728395061728395,34.96296296296296,0)" xlink:href="#Q"/></g><path fill="#b2b2b2" d="M133-34C117-15 103 5 69 4 32 3 11-16 11-54c-1-60 55-63 116-61 1-26-3-47-28-47-18 1-26 9-28 27l-52-2c7-38 36-58 82-57s74 22 75 68l1 82c-1 14 12 18 25 15v27c-30 8-71 5-69-32zm-48 3c29 0 43-24 42-57-32 0-66-3-65 30 0 17 8 27 23 27" id="R"/><path fill="#b2b2b2" d="M135-194c87-1 58 113 63 194h-50c-7-57 23-157-34-157-59 0-34 97-39 157H25l-1-190h47c2 12-1 28 3 38 12-26 28-41 61-42" id="S"/><path fill="#b2b2b2" d="M88-194c31-1 46 15 58 34l-1-101h50l1 261h-48c-2-10 0-23-3-31C134-8 116 4 84 4 32 4 16-41 15-95c0-56 19-97 73-99zm17 164c33 0 40-30 41-66 1-37-9-64-41-64s-38 30-39 65c0 43 13 65 39 65" id="T"/><path fill="#b2b2b2" d="M137-138c1-29-70-34-71-4 15 46 118 7 119 86 1 83-164 76-172 9l43-7c4 19 20 25 44 25 33 8 57-30 24-41C81-84 22-81 20-136c-2-80 154-74 161-7" id="U"/><path fill="#b2b2b2" d="M114-157C55-157 80-60 75 0H25v-261h50l-1 109c12-26 28-41 61-42 86-1 58 113 63 194h-50c-7-57 23-157-34-157" id="V"/><path fill="#b2b2b2" d="M147 0L96-86 75-71V0H25v-261h50v150l67-79h53l-66 74L201 0h-54" id="W"/><path fill="#b2b2b2" d="M185-48c-13 30-37 53-82 52C43 2 14-33 14-96s30-98 90-98c62 0 83 45 84 108H66c0 31 8 55 39 56 18 0 30-7 34-22zm-45-69c5-46-57-63-70-21-2 6-4 13-4 21h74" id="X"/><g id="r"><use transform="matrix(0.0728395061728395,0,0,0.0728395061728395,0,0)" xlink:href="#Q"/><use transform="matrix(0.0728395061728395,0,0,0.0728395061728395,18.86543209876543,0)" xlink:href="#R"/><use transform="matrix(0.0728395061728395,0,0,0.0728395061728395,33.43333333333333,0)" xlink:href="#S"/><use transform="matrix(0.0728395061728395,0,0,0.0728395061728395,49.38518518518518,0)" xlink:href="#T"/><use transform="matrix(0.0728395061728395,0,0,0.0728395061728395,65.33703703703704,0)" xlink:href="#U"/><use transform="matrix(0.0728395061728395,0,0,0.0728395061728395,79.90493827160493,0)" xlink:href="#V"/><use transform="matrix(0.0728395061728395,0,0,0.0728395061728395,95.85679012345679,0)" xlink:href="#R"/><use transform="matrix(0.0728395061728395,0,0,0.0728395061728395,110.42469135802469,0)" xlink:href="#W"/><use transform="matrix(0.0728395061728395,0,0,0.0728395061728395,124.99259259259259,0)" xlink:href="#X"/></g></defs></g></svg>